<svg width="46" height="46" viewBox="0 0 46 46" fill="none" xmlns="http://www.w3.org/2000/svg">
<g clip-path="url(#clip0_384_1679)">
<path d="M5.734 40.1963H40.0101V33.7727L45.3721 13.0742L34.2097 17.0419L34.8761 18.3746C35.3336 19.2897 35.3611 20.3438 34.9513 21.2667C34.5174 22.244 33.6342 22.9616 32.464 23.2874C32.4299 23.2969 29.0375 24.2028 28.011 21.1232L27.0169 18.1411L29.8416 15.3164L22.8721 4.86182L15.9024 15.3163L18.7271 18.141L17.733 21.1232C16.8772 23.6909 14.9698 23.4521 13.0003 23.185C12.0327 22.9151 11.2414 22.2417 10.82 21.3253C10.3854 20.3804 10.4029 19.3049 10.868 18.3745L11.5343 17.0418L0.37207 13.0741L5.734 33.7726V40.1963ZM8.37063 37.5597V34.923H17.0528L19.6894 37.5597H8.37063ZM22.8721 37.0135L19.4632 33.6046L22.8721 30.1957L26.281 33.6046L22.8721 37.0135ZM37.3735 37.5597H26.0547L28.6914 34.923H37.3735V37.5597ZM4.17031 17.2225L8.01328 18.5884C7.72755 19.8648 7.86369 21.2073 8.42468 22.427C9.19528 24.1024 10.6633 25.3198 12.4523 25.767C15.7397 26.6211 19.0304 25.5691 20.2345 21.9569L21.7439 17.4289L19.2953 14.9803L22.8722 9.61504L26.449 14.9803L24.0005 17.4289L25.5098 21.9569C27.0123 26.464 31.5499 26.279 33.1715 25.8274C35.1142 25.2865 36.6021 24.0468 37.3613 22.3365C37.8847 21.1594 38.0145 19.845 37.7316 18.5883L41.574 17.2225L37.6717 32.2864H28.6914L22.8721 26.4671L17.0528 32.2864H8.0726L4.17031 17.2225Z" fill="#FF00A2"/>
</g>
<defs>
<clipPath id="clip0_384_1679">
<rect width="45" height="45" fill="white" transform="translate(0.37207 0.0290527)"/>
</clipPath>
</defs>
</svg>
