<svg width="46" height="46" viewBox="0 0 46 46" fill="none" xmlns="http://www.w3.org/2000/svg">
<path d="M23 46C35.7025 46 46 35.7025 46 23C46 10.2975 35.7025 0 23 0C10.2975 0 0 10.2975 0 23C0 35.7025 10.2975 46 23 46Z" fill="#3A559F"/>
<path d="M30.2867 20.2766L29.8241 24.2833C29.8049 24.4661 29.7192 24.6355 29.5833 24.7594C29.4475 24.8832 29.2709 24.9528 29.087 24.955H24.9052L24.8843 36.834C24.8857 36.9747 24.8317 37.1104 24.7339 37.2117C24.6361 37.3129 24.5023 37.3716 24.3616 37.375H20.1249C20.0544 37.3751 19.9847 37.3609 19.9199 37.3333C19.8551 37.3057 19.7965 37.2654 19.7477 37.2146C19.6988 37.1638 19.6608 37.1037 19.6358 37.0378C19.6108 36.972 19.5993 36.9017 19.6022 36.8314V24.955H16.4658C16.3673 24.954 16.2699 24.9336 16.1793 24.8949C16.0887 24.8563 16.0066 24.8001 15.9377 24.7298C15.8687 24.6594 15.8144 24.5761 15.7776 24.4847C15.7409 24.3933 15.7225 24.2956 15.7235 24.197L15.7078 20.1903C15.7065 20.0915 15.7246 19.9933 15.7611 19.9015C15.7977 19.8096 15.852 19.7259 15.9209 19.655C15.9898 19.5841 16.072 19.5275 16.1628 19.4884C16.2536 19.4493 16.3513 19.4285 16.4501 19.4272H19.6022V15.559C19.6022 11.0687 22.2681 8.625 26.1781 8.625H29.3824C29.4815 8.62602 29.5794 8.64659 29.6705 8.68554C29.7616 8.72448 29.8441 8.78102 29.9133 8.85192C29.9825 8.92283 30.037 9.0067 30.0737 9.09872C30.1105 9.19075 30.1286 9.28911 30.1273 9.38818V12.7598C30.1286 12.8588 30.1105 12.9572 30.0737 13.0492C30.037 13.1413 29.9825 13.2251 29.9133 13.296C29.8441 13.3669 29.7616 13.4235 29.6705 13.4624C29.5794 13.5014 29.4815 13.5219 29.3824 13.523H27.4169C25.292 13.523 24.8791 14.5684 24.8791 16.0791V19.4272H29.5497C29.6559 19.4285 29.7606 19.4523 29.857 19.497C29.9533 19.5417 30.0391 19.6063 30.1088 19.6865C30.1784 19.7667 30.2302 19.8608 30.2609 19.9625C30.2916 20.0642 30.3004 20.1712 30.2867 20.2766Z" fill="white"/>
</svg>
