<svg width="46" height="46" viewBox="0 0 46 46" fill="none" xmlns="http://www.w3.org/2000/svg">
<path d="M46 23C46 10.2975 35.7025 0 23 0C10.2975 0 0 10.2975 0 23C0 35.7025 10.2975 46 23 46C35.7025 46 46 35.7025 46 23Z" fill="url(#paint0_linear_384_1719)"/>
<path d="M40.3105 7.86842C36.9574 14.0239 32.2151 20.3732 26.2896 26.2987C20.3641 32.2242 14.0149 36.9574 7.86841 40.3105C7.48306 39.9756 7.1088 39.6266 6.74564 39.2634C4.55053 37.1416 2.79981 34.604 1.59557 31.7985C0.391333 28.9931 -0.242321 25.9759 -0.268445 22.9231C-0.294569 19.8702 0.287361 16.8427 1.44341 14.017C2.59946 11.1914 4.3065 8.62416 6.46499 6.46507C8.62347 4.30598 11.1902 2.59823 14.0155 1.44139C16.8409 0.284549 19.8682 -0.298226 22.9211 -0.272955C25.974 -0.247683 28.9913 0.385129 31.7971 1.58858C34.6028 2.79204 37.141 4.54205 39.2634 6.73657C39.6266 7.09973 39.9756 7.47701 40.3105 7.86842Z" fill="white" fill-opacity="0.063"/>
<path d="M28.4474 10.8947H17.5527C15.7869 10.8947 14.0934 11.5962 12.8448 12.8448C11.5962 14.0934 10.8948 15.7869 10.8948 17.5526V28.4474C10.8948 30.2132 11.5962 31.9066 12.8448 33.1552C14.0934 34.4038 15.7869 35.1053 17.5527 35.1053H28.4474C30.2132 35.1053 31.9067 34.4038 33.1552 33.1552C34.4038 31.9066 35.1053 30.2132 35.1053 28.4474V17.5526C35.1053 15.7869 34.4038 14.0934 33.1552 12.8448C31.9067 11.5962 30.2132 10.8947 28.4474 10.8947ZM32.9869 27.4911C32.9869 28.9486 32.4079 30.3465 31.3772 31.3772C30.3465 32.4078 28.9487 32.9868 27.4911 32.9868H18.509C17.0514 32.9868 15.6535 32.4078 14.6229 31.3772C13.5922 30.3465 13.0132 28.9486 13.0132 27.4911V18.509C13.0132 17.0514 13.5922 15.6535 14.6229 14.6228C15.6535 13.5922 17.0514 13.0132 18.509 13.0132H27.4911C28.9487 13.0132 30.3465 13.5922 31.3772 14.6228C32.4079 15.6535 32.9869 17.0514 32.9869 18.509V27.4911Z" fill="white"/>
<path d="M27.4155 18.63L27.358 18.5725L27.3095 18.5241C26.1653 17.3838 24.6155 16.7438 23.0001 16.7446C22.1843 16.7502 21.3776 16.9164 20.6261 17.2338C19.8746 17.5512 19.193 18.0135 18.6202 18.5945C18.0475 19.1754 17.5948 19.8634 17.288 20.6194C16.9813 21.3753 16.8265 22.1842 16.8324 23C16.8312 24.6556 17.4838 26.2446 18.6482 27.4214C19.2186 27.9988 19.8982 28.4566 20.6475 28.7684C21.3968 29.0802 22.2006 29.2395 23.0122 29.2372C24.2295 29.2117 25.413 28.8325 26.4185 28.1459C27.424 27.4592 28.208 26.4949 28.6748 25.3703C29.1416 24.2458 29.2711 23.0098 29.0475 21.8129C28.8239 20.616 28.2568 19.5101 27.4155 18.63ZM23.0001 27.1037C22.1861 27.1151 21.3871 26.8841 20.7047 26.4402C20.0224 25.9963 19.4874 25.3594 19.168 24.6107C18.8486 23.8619 18.7591 23.035 18.9109 22.2352C19.0626 21.4355 19.4489 20.6989 20.0204 20.1192C20.592 19.5395 21.323 19.1429 22.1206 18.9799C22.9182 18.8168 23.7462 18.8947 24.4994 19.2035C25.2526 19.5123 25.897 20.0382 26.3505 20.7143C26.804 21.3903 27.0462 22.1859 27.0463 23C27.0502 23.5352 26.9487 24.0659 26.7475 24.5618C26.5463 25.0578 26.2493 25.5092 25.8735 25.8903C25.4978 26.2714 25.0506 26.5747 24.5575 26.7829C24.0645 26.9911 23.5353 27.1001 23.0001 27.1037ZM30.9986 16.4571C31.0002 16.6513 30.9635 16.8439 30.8906 17.0239C30.8176 17.2039 30.7099 17.3677 30.5736 17.506C30.4372 17.6443 30.275 17.7544 30.096 17.8299C29.9171 17.9054 29.7251 17.9449 29.5309 17.9461C29.3383 17.946 29.1477 17.9077 28.97 17.8334C28.7923 17.7591 28.6312 17.6503 28.4959 17.5133C28.2908 17.3053 28.1514 17.0417 28.0948 16.7551C28.0382 16.4686 28.0669 16.1717 28.1774 15.9014C28.288 15.631 28.4754 15.3991 28.7165 15.2343C28.9577 15.0694 29.2419 14.979 29.5339 14.9742C29.8757 14.9741 30.2066 15.0941 30.469 15.3132L30.4993 15.3434C30.5481 15.3832 30.5927 15.4278 30.6324 15.4766L30.6657 15.5129C30.8824 15.7798 31 16.1134 30.9986 16.4571Z" fill="white"/>
<defs>
<linearGradient id="paint0_linear_384_1719" x1="6.73658" y1="6.73658" x2="39.2634" y2="39.2634" gradientUnits="userSpaceOnUse">
<stop stop-color="#FAE100"/>
<stop offset="0.15" stop-color="#FCB720"/>
<stop offset="0.3" stop-color="#FF7950"/>
<stop offset="0.5" stop-color="#FF1C74"/>
<stop offset="1" stop-color="#6C1CD1"/>
</linearGradient>
</defs>
</svg>
