<svg width="46" height="46" viewBox="0 0 46 46" fill="none" xmlns="http://www.w3.org/2000/svg">
<path d="M23 0C10.2994 0 0 10.2994 0 23C0 35.7006 10.2994 46 23 46C35.7006 46 46 35.7006 46 23C46 10.2994 35.7006 0 23 0ZM34.5386 17.598V20.7122C33.0701 20.7128 31.6433 20.425 30.2976 19.8573C29.4376 19.4947 28.6279 19.0225 27.8888 18.4525L27.9109 28.0382C27.9017 30.1967 27.0477 32.2247 25.5021 33.7523C24.2443 34.9958 22.6505 35.7865 20.923 36.0424C20.5135 36.103 20.1001 36.1334 19.6862 36.1334C17.8369 36.1334 16.0813 35.5343 14.6452 34.429C14.3732 34.2196 14.1145 33.9936 13.8703 33.7523C12.1953 32.0968 11.3315 29.853 11.477 27.4925C11.588 25.6958 12.3073 23.9822 13.5066 22.6391C15.0932 20.8618 17.3129 19.8753 19.6862 19.8753C20.104 19.8753 20.5171 19.9067 20.923 19.9668V24.3213C20.5281 24.1909 20.1149 24.1245 19.6991 24.1246C17.5308 24.1246 15.7766 25.8936 15.809 28.0635C15.8296 29.4519 16.5879 30.6655 17.7065 31.3344C18.2454 31.6576 18.8549 31.8446 19.4823 31.8791C19.9702 31.9062 20.459 31.8414 20.923 31.688C22.4722 31.1762 23.5897 29.7211 23.5897 28.0049L23.5949 21.5859V9.86664H27.8836C27.8872 10.2835 27.9299 10.6991 28.011 11.108C28.3347 12.7343 29.2514 14.1452 30.5272 15.107C31.6396 15.9461 33.0249 16.4435 34.5262 16.4435C34.5272 16.4435 34.5396 16.4435 34.5385 16.4425V17.598H34.5386Z" fill="white"/>
</svg>
