<svg width="8" height="14" viewBox="0 0 8 14" fill="none" xmlns="http://www.w3.org/2000/svg">
<path d="M7.12506 0.125019C7.20715 0.124934 7.28844 0.141069 7.36427 0.172495C7.4401 0.203921 7.50898 0.25002 7.56694 0.308144C7.62501 0.366146 7.67108 0.435028 7.70251 0.510848C7.73394 0.586669 7.75012 0.667941 7.75012 0.750019C7.75012 0.832097 7.73394 0.913369 7.70251 0.98919C7.67108 1.06501 7.62501 1.13389 7.56694 1.19189L1.75881 7.00002L7.56694 12.8081C7.81115 13.0524 7.81115 13.4478 7.56694 13.6919C7.32272 13.936 6.92725 13.9361 6.68319 13.6919L0.433186 7.44189C0.375114 7.38389 0.329044 7.31501 0.297612 7.23919C0.26618 7.16337 0.250001 7.0821 0.250001 7.00002C0.250001 6.91794 0.26618 6.83667 0.297612 6.76085C0.329044 6.68503 0.375114 6.61615 0.433186 6.55814L6.68319 0.308144C6.74115 0.25002 6.81002 0.203921 6.88585 0.172495C6.96168 0.141069 7.04298 0.124934 7.12506 0.125019Z" fill="#BEBEBE"/>
</svg>
