<svg width="14" height="21" viewBox="0 0 14 21" fill="none" xmlns="http://www.w3.org/2000/svg">
<path d="M6.99995 15.7734C6.90505 15.7734 6.81157 15.7504 6.72755 15.7063C6.64353 15.6622 6.57149 15.5983 6.51761 15.5202L0.267649 6.45771C0.206994 6.36976 0.17154 6.2669 0.165121 6.16026C0.158702 6.05362 0.181563 5.94725 0.231231 5.85266C0.280899 5.75807 0.355483 5.67886 0.446917 5.6236C0.53835 5.56834 0.643153 5.53912 0.749989 5.53912H13.2499C13.3568 5.53912 13.4616 5.56834 13.553 5.6236C13.6444 5.67886 13.719 5.75807 13.7687 5.85266C13.8183 5.94725 13.8412 6.05362 13.8348 6.16026C13.8284 6.2669 13.7929 6.36976 13.7323 6.45771L7.48229 15.5202C7.42841 15.5983 7.35637 15.6621 7.27235 15.7063C7.18833 15.7504 7.09485 15.7734 6.99995 15.7734ZM1.8658 6.71099L6.99991 14.1554L12.134 6.71099H1.8658Z" fill="white"/>
<path d="M7 20.5C6.67641 20.5 6.41406 20.2376 6.41406 19.914V15.1875C6.41406 14.8639 6.67641 14.6016 7 14.6016C7.32359 14.6016 7.58593 14.8639 7.58593 15.1875V19.914C7.58593 20.2376 7.32359 20.5 7 20.5Z" fill="white"/>
<path d="M11.3749 20.5H2.625C2.3014 20.5 2.03906 20.2377 2.03906 19.9141C2.03906 19.5905 2.3014 19.3281 2.625 19.3281H11.3749C11.6985 19.3281 11.9609 19.5905 11.9609 19.9141C11.9609 20.2377 11.6985 20.5 11.3749 20.5ZM6.9995 11.7111C6.91173 11.7111 6.82267 11.6913 6.73872 11.6495C6.44908 11.5053 6.33119 11.1535 6.47548 10.8638L11.4755 0.824834C11.6197 0.535188 11.9714 0.417298 12.2612 0.561594C12.5508 0.705851 12.6687 1.05765 12.5244 1.34729L7.52442 11.3863C7.42196 11.592 7.21477 11.7111 6.9995 11.7111Z" fill="white"/>
<path d="M10.6906 10.4216C10.5789 10.4216 10.4661 10.3898 10.3662 10.3232L9.48764 9.73766C9.30644 9.61631 9.09328 9.55152 8.8752 9.55151C8.65712 9.55149 8.44395 9.61626 8.26273 9.73759C7.49566 10.2489 6.50458 10.2489 5.73763 9.73762C5.5564 9.61634 5.34324 9.55159 5.12517 9.55159C4.9071 9.55159 4.69394 9.61634 4.51271 9.73762L3.63412 10.3232C3.36483 10.5027 3.00108 10.4299 2.82159 10.1606C2.6421 9.89137 2.71491 9.52755 2.98417 9.34809L3.86268 8.76255C4.62955 8.25127 5.62071 8.25127 6.38766 8.76259C6.5689 8.88388 6.78206 8.94862 7.00014 8.94862C7.21821 8.94862 7.43138 8.88388 7.61262 8.76259C8.37956 8.25115 9.37077 8.25119 10.1377 8.76263L11.0161 9.34809C11.2854 9.52755 11.3582 9.89133 11.1787 10.1606C11.0658 10.33 10.88 10.4216 10.6906 10.4216Z" fill="white"/>
</svg>
