<svg width="20" height="20" viewBox="0 0 20 20" fill="none" xmlns="http://www.w3.org/2000/svg">
<path d="M17.7725 1.68188C17.6322 1.54173 17.4049 1.54161 17.2646 1.68188L13.5408 5.40555C13.4905 5.45577 13.4563 5.51977 13.4425 5.58944C13.4286 5.65911 13.4357 5.73133 13.4629 5.79696C13.4901 5.86259 13.5361 5.91868 13.5952 5.95814C13.6542 5.9976 13.7237 6.01866 13.7947 6.01864C13.8419 6.0187 13.8886 6.00944 13.9322 5.9914C13.9758 5.97335 14.0154 5.94687 14.0487 5.91348L17.7725 2.18981C17.9127 2.0495 17.9127 1.82212 17.7725 1.68188ZM18.7852 2.67856C18.7178 2.61124 18.6264 2.57342 18.5312 2.57342C18.436 2.57342 18.3446 2.61124 18.2772 2.67856L14.5535 6.40231C14.4861 6.46968 14.4483 6.56102 14.4483 6.65627C14.4483 6.75152 14.4861 6.84287 14.5534 6.91024C14.5868 6.94363 14.6264 6.97011 14.6699 6.98815C14.7135 7.0062 14.7603 7.01546 14.8074 7.0154C14.8546 7.01546 14.9013 7.0062 14.9449 6.98815C14.9885 6.97011 15.0281 6.94363 15.0614 6.91024L18.7852 3.18645C18.8185 3.15311 18.845 3.11352 18.863 3.06994C18.8811 3.02637 18.8904 2.97967 18.8904 2.93251C18.8904 2.88534 18.8811 2.83864 18.863 2.79507C18.845 2.7515 18.8185 2.71191 18.7852 2.67856Z" fill="white"/>
<path d="M15.2721 8.96669L19.8947 4.34411C19.9281 4.31076 19.9545 4.27117 19.9726 4.22759C19.9906 4.18401 19.9999 4.13731 19.9999 4.09014C19.9999 4.04298 19.9906 3.99627 19.9726 3.9527C19.9545 3.90912 19.9281 3.86953 19.8947 3.83618C19.7544 3.69602 19.5271 3.69591 19.3868 3.83618L14.7643 8.45876C14.1948 9.02821 13.324 9.17762 12.5975 8.83067C12.5272 8.79708 12.4479 8.78727 12.3715 8.80272C12.2951 8.81817 12.2258 8.85805 12.1741 8.91634L10.6034 10.686C10.6028 10.6866 10.6021 10.6872 10.6015 10.6879C10.6009 10.6886 10.6004 10.6894 10.5998 10.6901L3.81113 18.3384L3.80602 18.3443C3.78533 18.3688 3.76367 18.3924 3.74109 18.4152C3.29285 18.8634 2.56355 18.8633 2.11551 18.4152C1.8984 18.1981 1.77883 17.9094 1.77883 17.6024C1.77883 17.2953 1.8984 17.0066 2.1159 16.7891C2.13847 16.7666 2.16196 16.7451 2.18633 16.7245C2.18836 16.7229 2.19031 16.7211 2.19227 16.7194L6.43633 12.9525C6.50756 12.8892 6.55076 12.8003 6.55642 12.7052C6.56209 12.6101 6.52975 12.5167 6.46652 12.4455C6.33484 12.2971 6.10781 12.2835 5.95953 12.4153L1.71828 16.1797C1.68004 16.2122 1.64312 16.2462 1.60762 16.2816C1.25484 16.6344 1.06055 17.1034 1.06055 17.6024C1.06055 18.1012 1.2548 18.5703 1.60758 18.9231C1.97176 19.2872 2.45 19.4692 2.92836 19.4692C3.40652 19.4692 3.88488 19.2872 4.24879 18.9233C4.28432 18.8877 4.31841 18.8507 4.35098 18.8124L9.5241 12.984L14.6973 18.8124C14.7298 18.8507 14.7638 18.8876 14.7992 18.9231C15.1633 19.2872 15.6416 19.4693 16.1199 19.4693C16.5982 19.4693 17.0765 19.2872 17.4407 18.9231C18.1688 18.1949 18.1688 17.01 17.4409 16.282C17.4053 16.2464 17.3683 16.2124 17.33 16.1798L11.3772 10.8962L12.5419 9.58403C13.4855 9.91837 14.5532 9.68548 15.2721 8.96669ZM16.8559 16.7195L16.8619 16.7246C16.8863 16.7453 16.91 16.7669 16.9327 16.7895C17.3809 17.2377 17.3809 17.967 16.9327 18.4151C16.4845 18.8632 15.7552 18.8632 15.3069 18.4149C15.2825 18.3904 15.2591 18.3649 15.237 18.3383L10.0043 12.4429L10.9003 11.4334L16.8559 16.7195Z" fill="white"/>
<path d="M16.6945 0.63584C16.6271 0.568518 16.5358 0.530701 16.4405 0.530701C16.3453 0.530701 16.2539 0.568518 16.1866 0.63584L11.5641 5.25846C10.8451 5.97736 10.6123 7.04498 10.9466 7.98881L9.52414 9.25139L8.15703 8.03795C8.86402 6.64686 8.60593 4.95783 7.48429 3.83615C6.37031 2.72217 5.08 1.93822 3.85105 1.62881C2.56812 1.30588 1.4682 1.52146 0.75359 2.23604C0.0389802 2.95061 -0.176645 4.05068 0.146363 5.33354C0.455816 6.5624 1.23972 7.85271 2.35379 8.96666C3.47543 10.0884 5.16441 10.3465 6.55558 9.63943L7.90945 11.1647C7.94313 11.2028 7.98451 11.2332 8.03084 11.254C8.07718 11.2748 8.12741 11.2855 8.1782 11.2854C8.26605 11.2855 8.35086 11.2533 8.41648 11.1949L11.6144 8.35646C11.6726 8.30473 11.7125 8.23545 11.728 8.15908C11.7434 8.08271 11.7336 8.00338 11.7 7.93307C11.353 7.20646 11.5025 6.33576 12.0719 5.76635L16.6945 1.14377C16.7278 1.11042 16.7543 1.07083 16.7724 1.02725C16.7904 0.983676 16.7997 0.936971 16.7997 0.889805C16.7997 0.842638 16.7904 0.795934 16.7724 0.752358C16.7543 0.708783 16.7278 0.66919 16.6945 0.63584ZM8.20824 10.4194L6.90089 8.9465C6.8448 8.88329 6.76821 8.84189 6.6846 8.82958C6.60098 8.81728 6.51571 8.83486 6.44379 8.87924C5.2923 9.58928 3.81925 9.4165 2.8616 8.45881C1.838 7.43525 1.12109 6.26311 0.842848 5.15814C0.584058 4.13014 0.73273 3.27272 1.26152 2.74397C1.79023 2.21514 2.64765 2.06654 3.67562 2.32537C4.78058 2.60357 5.95281 3.32045 6.97632 4.34404C7.93398 5.30166 8.10679 6.77471 7.39672 7.92619C7.35237 7.99813 7.3348 8.08339 7.34711 8.167C7.35941 8.2506 7.40079 8.32719 7.46398 8.3833L8.98304 9.73158L8.20824 10.4194Z" fill="white"/>
</svg>
