<svg width="20" height="20" viewBox="0 0 20 20" fill="none" xmlns="http://www.w3.org/2000/svg">
<g clip-path="url(#clip0_11_3618)">
<path d="M10.9375 13.9843C11.2075 13.984 11.4692 13.8906 11.6783 13.7198C11.8875 13.549 12.0313 13.3114 12.0856 13.0468H13.75C14.0607 13.0464 14.3585 12.9228 14.5782 12.7032C14.7979 12.4835 14.9215 12.1856 14.9219 11.875C14.9219 11.8128 14.8972 11.7532 14.8532 11.7092C14.8093 11.6653 14.7497 11.6406 14.6875 11.6406H10.7031V6.00716C10.9221 6.11422 11.1625 6.17051 11.4062 6.17185C12.0063 6.17185 12.5262 5.84466 12.8125 5.36279C13.0988 5.84466 13.6187 6.17185 14.2188 6.17185C14.8188 6.17185 15.3387 5.84466 15.625 5.36279C15.9113 5.84466 16.4312 6.17185 17.0312 6.17185C17.4662 6.17135 17.8832 5.99834 18.1908 5.69077C18.4984 5.3832 18.6714 4.96619 18.6719 4.53122V4.06247C18.6718 4.01714 18.6586 3.9728 18.634 3.93477C18.6093 3.89674 18.5742 3.86664 18.5328 3.8481L10.0953 0.0980985C10.0653 0.0848082 10.0329 0.0779419 10.0002 0.0779419C9.96738 0.0779419 9.93496 0.0848082 9.905 0.0980985L1.46719 3.8481C1.42575 3.86654 1.39056 3.89662 1.36587 3.93467C1.34119 3.97272 1.32808 4.01712 1.32813 4.06247V4.53122C1.32862 4.96619 1.50163 5.3832 1.8092 5.69077C2.11677 5.99834 2.53378 6.17135 2.96875 6.17185C3.56875 6.17185 4.08875 5.84466 4.375 5.36279C4.66125 5.84466 5.18125 6.17185 5.78125 6.17185C6.38125 6.17185 6.90125 5.84466 7.1875 5.36279C7.47375 5.84466 7.99375 6.17185 8.59375 6.17185C8.84625 6.17185 9.08281 6.10966 9.29688 6.00716V11.6406H5.3125C5.25034 11.6406 5.19073 11.6653 5.14677 11.7092C5.10282 11.7532 5.07812 11.8128 5.07812 11.875C5.07854 12.1856 5.20214 12.4835 5.42182 12.7032C5.6415 12.9228 5.93933 13.0464 6.25 13.0468H7.91438C8.02344 13.5812 8.49687 13.9843 9.0625 13.9843H9.29688V18.5156H8.75C8.43933 18.516 8.1415 18.6396 7.92182 18.8593C7.70214 19.079 7.57854 19.3768 7.57812 19.6875C7.57812 19.8168 7.68313 19.9218 7.8125 19.9218H12.1875C12.2497 19.9218 12.3093 19.8972 12.3532 19.8532C12.3972 19.8092 12.4219 19.7496 12.4219 19.6875C12.4215 19.3768 12.2979 19.079 12.0782 18.8593C11.8585 18.6396 11.5607 18.516 11.25 18.5156H10.7031V13.9843H10.9375ZM15.3906 4.53122C15.3906 5.17747 14.8647 5.7031 14.2188 5.7031C13.5728 5.7031 13.0469 5.17747 13.0469 4.53122V4.29685H15.3906V4.53122ZM18.2031 4.53122C18.2031 5.17747 17.6772 5.7031 17.0312 5.7031C16.3853 5.7031 15.8594 5.17747 15.8594 4.53122V4.29685H18.2031V4.53122ZM17.3331 3.8281H15.6959L12.4219 1.64529L17.3331 3.8281ZM14.8509 3.8281H12.9297L11.0084 1.26622L14.8509 3.8281ZM10.2344 1.0156L12.3438 3.8281H10.2344V1.0156ZM10.2344 4.29685H12.5781V4.53122C12.5781 5.17747 12.0522 5.7031 11.4062 5.7031C10.7603 5.7031 10.2344 5.17747 10.2344 4.53122V4.29685ZM10 5.36279C10.0672 5.4756 10.1431 5.58247 10.2344 5.67591V11.6406H9.76562V5.67591C9.85688 5.58247 9.93281 5.47591 10 5.36279ZM9.76562 3.8281H7.65625L9.76562 1.0156V3.8281ZM4.14062 4.53122C4.14062 5.17747 3.61469 5.7031 2.96875 5.7031C2.32281 5.7031 1.79688 5.17747 1.79688 4.53122V4.29685H4.14062V4.53122ZM4.30406 3.8281H2.66688L7.57812 1.64529L4.30406 3.8281ZM6.95312 4.53122C6.95312 5.17747 6.42719 5.7031 5.78125 5.7031C5.13531 5.7031 4.60938 5.17747 4.60938 4.53122V4.29685H6.95312V4.53122ZM7.07031 3.8281H5.14906L8.99156 1.26622L7.07031 3.8281ZM8.59375 5.7031C8.28308 5.70269 7.98525 5.57909 7.76557 5.35941C7.54589 5.13973 7.42229 4.8419 7.42188 4.53122V4.29685H9.76562V4.53122C9.76521 4.8419 9.64161 5.13973 9.42193 5.35941C9.20225 5.57909 8.90442 5.70269 8.59375 5.7031ZM6.25 12.5781C6.10465 12.5779 5.96291 12.5328 5.84423 12.4489C5.72556 12.3649 5.63577 12.2463 5.58719 12.1093H14.4128C14.3642 12.2463 14.2743 12.3648 14.1557 12.4488C14.037 12.5327 13.8953 12.5778 13.75 12.5781H6.25ZM11.25 18.9843C11.5556 18.9843 11.8162 19.1803 11.9128 19.4531H8.08719C8.13585 19.3162 8.22566 19.1976 8.34431 19.1137C8.46297 19.0298 8.60467 18.9846 8.75 18.9843H11.25ZM9.76562 18.5156V13.9843H10.2344V18.5156H9.76562ZM9.0625 13.5156C8.91757 13.5151 8.77635 13.4698 8.65819 13.3858C8.54003 13.3019 8.45072 13.1835 8.4025 13.0468H11.5972C11.549 13.1835 11.4597 13.3019 11.3415 13.3858C11.2233 13.4698 11.0821 13.5151 10.9372 13.5156H9.0625Z" fill="white"/>
<path d="M6.17176 15.3125C6.1716 15.0846 6.081 14.8661 5.91987 14.705C5.75875 14.5439 5.54026 14.4533 5.31239 14.4531H2.78832L2.37739 12.1228C2.29225 11.6372 2.03849 11.1972 1.6608 10.8804C1.2831 10.5635 0.805708 10.3901 0.312699 10.3906C0.278447 10.3905 0.244584 10.3979 0.213514 10.4123C0.182444 10.4267 0.154928 10.4478 0.132917 10.4741C0.110907 10.5003 0.0949424 10.5311 0.0861556 10.5642C0.0773689 10.5973 0.0759755 10.6319 0.0820744 10.6656L1.01082 15.9288L0.0851993 19.63C0.0764924 19.6647 0.0758133 19.7008 0.0832139 19.7358C0.0906145 19.7708 0.105899 19.8036 0.127903 19.8317C0.149907 19.8599 0.178048 19.8826 0.210182 19.8982C0.242316 19.9139 0.277593 19.922 0.313324 19.9219H1.24957C1.30201 19.9218 1.35293 19.9043 1.39426 19.872C1.43559 19.8398 1.46496 19.7946 1.4777 19.7438L2.37051 16.1719H3.87957L4.77239 19.7438C4.79864 19.8484 4.89239 19.9219 5.00051 19.9219H5.93707C6.08989 19.9219 6.20207 19.7781 6.1652 19.63L5.30051 16.1719H5.3127C5.54057 16.1717 5.75906 16.0811 5.92019 15.92C6.08131 15.7589 6.1716 15.5404 6.17176 15.3125ZM1.06676 19.4531H0.612699L1.43301 16.1719H1.88739L1.06676 19.4531ZM5.63707 19.4531H5.18301L4.3627 16.1719H4.81707L5.63739 19.4531H5.63707ZM1.44645 15.7031L0.596137 10.8841C0.92509 10.9421 1.22821 11.0999 1.46432 11.3362C1.70043 11.5725 1.85807 11.8757 1.91582 12.2047L2.36114 14.7284C2.38051 14.8403 2.47801 14.9222 2.59176 14.9222H5.31239C5.5277 14.9222 5.70301 15.0975 5.70301 15.3128C5.70301 15.5281 5.5277 15.7034 5.31239 15.7034L1.44645 15.7031ZM18.9893 15.9288L19.918 10.6656C19.9239 10.6319 19.9224 10.5974 19.9136 10.5643C19.9047 10.5313 19.8887 10.5006 19.8668 10.4744C19.8448 10.4482 19.8173 10.4271 19.7864 10.4126C19.7554 10.3982 19.7216 10.3907 19.6874 10.3906C19.1944 10.3901 18.717 10.5635 18.3393 10.8804C17.9616 11.1972 17.7078 11.6372 17.6227 12.1228L17.2118 14.4531H14.6877C14.2136 14.4531 13.8283 14.8384 13.8283 15.3125C13.8283 15.7866 14.2136 16.1719 14.6877 16.1719H14.6999L13.8352 19.63C13.8265 19.6647 13.8258 19.7008 13.8332 19.7358C13.8406 19.7708 13.8559 19.8036 13.8779 19.8317C13.8999 19.8599 13.928 19.8826 13.9602 19.8982C13.9923 19.9139 14.0276 19.922 14.0633 19.9219H14.9999C15.0523 19.9218 15.1032 19.9043 15.1446 19.872C15.1859 19.8398 15.2153 19.7946 15.228 19.7438L16.1208 16.1719H17.6299L18.5227 19.7438C18.5489 19.8484 18.6427 19.9219 18.7508 19.9219H19.6874C19.8402 19.9219 19.9524 19.7781 19.9155 19.63L18.9902 15.9291L18.9893 15.9288ZM14.8168 19.4531H14.3627L15.183 16.1719H15.6374L14.8168 19.4531ZM14.6874 15.7031C14.4721 15.7031 14.2968 15.5278 14.2968 15.3125C14.2968 15.0972 14.4721 14.9219 14.6874 14.9219H17.408C17.4631 14.922 17.5165 14.9026 17.5587 14.8671C17.6009 14.8316 17.6292 14.7824 17.6386 14.7281L18.084 12.2044C18.1418 11.8754 18.2995 11.5722 18.5355 11.336C18.7716 11.0997 19.0747 10.9418 19.4036 10.8838L18.5533 15.7028L14.6874 15.7031ZM18.933 19.4531L18.1127 16.1719H18.5671L19.3874 19.4531H18.9333H18.933Z" fill="white"/>
</g>
<defs>
<clipPath id="clip0_11_3618">
<rect width="20" height="20" fill="white"/>
</clipPath>
</defs>
</svg>
